<?xml version="1.0" encoding="utf-8"?><svg xmlns="http://www.w3.org/2000/svg" xmlns:xlink="http://www.w3.org/1999/xlink" width="1536" height="57" preserveAspectRatio="xMidYMid" viewBox="0 0 1536 57" style="z-index:1;margin-right:-2px;display:block;background-repeat-y:initial;background-repeat-x:initial;background-color:rgb(255, 255, 255);animation-play-state:paused" ><g transform="translate(768,28.5) scale(1,1) translate(-768,-28.5)" style="transform:matrix(1, 0, 0, 1, 0, 0);animation-play-state:paused" ><linearGradient id="lg-0.43984063316791944" x1="0" x2="1" y1="0" y2="0" style="animation-play-state:paused" ><stop stop-color="#1ba4e5" offset="0" style="animation-play-state:paused" ></stop>

  
<stop stop-color="#00ffff" offset="1" style="animation-play-state:paused" ></stop></linearGradient>
<path d="M 0 0 L 0 22.0244 Q 128 76.7287 256 39.167 T 512 37.7289 T 768 37.0926 T 1024 29.2854 T 1280 31.8474 T 1536 17.0165 L 1536 0 Z" fill="url(#lg-0.43984063316791944)" opacity="0.4" style="opacity:0.4;animation-play-state:paused" ></path>
<path d="M 0 0 L 0 26.5881 Q 128 45.7063 256 25.2301 T 512 26.879 T 768 31.538 T 1024 34.0617 T 1280 33.319 T 1536 33.5134 L 1536 0 Z" fill="url(#lg-0.43984063316791944)" opacity="0.4" style="opacity:0.4;animation-play-state:paused" ></path>
<path d="M 0 0 L 0 29.5718 Q 128 57.7877 256 27.2392 T 512 29.8052 T 768 28.9436 T 1024 27.4414 T 1280 20.5784 T 1536 31.0887 L 1536 0 Z" fill="url(#lg-0.43984063316791944)" opacity="0.4" style="opacity:0.4;animation-play-state:paused" ></path>
<path d="M 0 0 L 0 17.3559 Q 128 58.1656 256 34.1437 T 512 24.4468 T 768 17.2649 T 1024 17.2194 T 1280 36.0328 T 1536 35.6795 L 1536 0 Z" fill="url(#lg-0.43984063316791944)" opacity="0.4" style="opacity:0.4;animation-play-state:paused" ></path>
<path d="M 0 0 L 0 29.7228 Q 128 55.4055 256 28.4779 T 512 35.3843 T 768 25.2211 T 1024 26.2287 T 1280 21.8255 T 1536 26.3631 L 1536 0 Z" fill="url(#lg-0.43984063316791944)" opacity="0.4" style="opacity:0.4;animation-play-state:paused" ></path></g></svg>