<?xml version="1.0" encoding="utf-8"?><svg xmlns="http://www.w3.org/2000/svg" xmlns:xlink="http://www.w3.org/1999/xlink" width="1536" height="579" preserveAspectRatio="xMidYMid" viewBox="0 0 1536 579" style="z-index:1;margin-right:-2px;display:block;background-repeat-y:initial;background-repeat-x:initial;background-color:rgb(255, 255, 255);animation-play-state:paused" ><g transform="translate(768,289.5) scale(1,1) translate(-768,-289.5)" style="transform:matrix(1, 0, 0, 1, 0, 0);animation-play-state:paused" ><linearGradient id="lg-0.11800806962604171" x1="0" x2="1" y1="0" y2="0" style="animation-play-state:paused" ><stop stop-color="#ff00ff" offset="0" style="animation-play-state:paused" ></stop>

  
<stop stop-color="#00ffff" offset="1" style="animation-play-state:paused" ></stop></linearGradient>
<path d="M 0 0 L 0 443.761 Q 153.6 328.577 307.2 308.503 T 614.4 244.054 T 921.6 179.328 T 1228.8 95.6079 T 1536 -10.5474 L 1536 0 Z" fill="url(#lg-0.11800806962604171)" opacity="0.4" style="opacity:0.4;animation-play-state:paused" ></path>
<path d="M 0 0 L 0 458.815 Q 153.6 445.181 307.2 409.354 T 614.4 257.155 T 921.6 184.206 T 1228.8 105.665 T 1536 -144.879 L 1536 0 Z" fill="url(#lg-0.11800806962604171)" opacity="0.4" style="opacity:0.4;animation-play-state:paused" ></path>
<path d="M 0 0 L 0 418.573 Q 153.6 358.325 307.2 329.115 T 614.4 283.158 T 921.6 75.6951 T 1228.8 66.0057 T 1536 -159.576 L 1536 0 Z" fill="url(#lg-0.11800806962604171)" opacity="0.4" style="opacity:0.4;animation-play-state:paused" ></path>
<path d="M 0 0 L 0 459.328 Q 153.6 394.706 307.2 373.67 T 614.4 282.103 T 921.6 187.166 T 1228.8 57.5339 T 1536 -132.354 L 1536 0 Z" fill="url(#lg-0.11800806962604171)" opacity="0.4" style="opacity:0.4;animation-play-state:paused" ></path>
<path d="M 0 0 L 0 523.457 Q 153.6 391.952 307.2 367.949 T 614.4 165.554 T 921.6 -14.6838 T 1228.8 32.485 T 1536 -134.837 L 1536 0 Z" fill="url(#lg-0.11800806962604171)" opacity="0.4" style="opacity:0.4;animation-play-state:paused" ></path></g></svg>