<svg id="SvgjsSvg1001" width="288" height="288" xmlns="http://www.w3.org/2000/svg" version="1.1" xmlns:xlink="http://www.w3.org/1999/xlink" xmlns:svgjs="http://svgjs.com/svgjs"><defs id="SvgjsDefs1002"></defs><g id="SvgjsG1008" transform="matrix(1,0,0,1,0,0)"><svg xmlns="http://www.w3.org/2000/svg" enable-background="new 0 0 50 50" viewBox="0 0 50 50" width="288" height="288"><path d="M46.7505,18.8583c-0.1459-1.2664-1.2962-2.1677-2.557-2.0275
		c-10.8781,1.2534-15.0576-5.6745-15.2773-5.9765c-0.3664-0.5106-0.9037-0.8256-1.4783-0.9257l-0.0061-0.0353h-1.9959
		c-1.1537,1.6037-3.0227,2.642-5.1456,2.642c-2.1113,0-3.9919-1.0383-5.1456-2.642h-2.9996l0.0002,0.0044
		c-0.1395-0.0001-0.2805,0.0085-0.4227,0.0345c-3.0922,0.5763-8.3059,2.0669-8.4833,5.5726
		c-0.1429,2.8192,2.6192,4.8229,9.4887,6.8782l0.0632,1.355h0.0029v22.1255c0,1.7323,1.4043,3.1366,3.1365,3.1366
		s3.1366-1.4043,3.1366-3.1366V23.7379h1.4783v22.1255c0,1.7323,1.4043,3.1366,3.1366,3.1366s3.1365-1.4043,3.1365-3.1366V23.7379
		h0.0018l1.4173-7.0863c4.4399,3.6016,8.9935,5.6287,16.4854,4.7637C45.9894,21.2688,46.897,20.1241,46.7505,18.8583z
		 M8.4518,15.752c0.9266-0.4504,2.4732-0.9478,3.9089-1.2368l0.1379,2.9564C10.3193,16.7426,9.1014,16.1493,8.4518,15.752z
		 M20.2903,14.5082c0.6115,0,1.1076,0.4961,1.1076,1.1075c0,0.6115-0.4961,1.1076-1.1076,1.1076
		c-0.6114,0-1.1076-0.4961-1.1076-1.1076C19.1827,15.0043,19.6789,14.5082,20.2903,14.5082z M20.2903,20.3229
		c-0.6114,0-1.1076-0.4961-1.1076-1.1076c0-0.6114,0.4962-1.1075,1.1076-1.1075c0.6115,0,1.1076,0.4961,1.1076,1.1075
		C21.3979,19.8268,20.9018,20.3229,20.2903,20.3229z" fill="#111439" class="color000 svgShape"></path><circle cx="20.293" cy="6.192" r="5.192" fill="#111439" class="color000 svgShape"></circle></svg></g></svg>