<?xml version="1.0" encoding="UTF-8"?>
<svg version="1.1" viewBox="0 0 288 288" xmlns="http://www.w3.org/2000/svg">
<g>
<svg width="288" height="288" enable-background="new 0 0 50 50" fill="#111439" viewBox="0 0 50 50" xmlns="http://www.w3.org/2000/svg">
<path class="color000 svgShape" d="m46.75 18.858c-0.1459-1.2664-1.2962-2.1677-2.557-2.0275-10.878 1.2534-15.058-5.6745-15.277-5.9765-0.3664-0.5106-0.9037-0.8256-1.4783-0.9257l-0.0061-0.0353h-1.9959c-1.1537 1.6037-3.0227 2.642-5.1456 2.642-2.1113 0-3.9919-1.0383-5.1456-2.642h-2.9996l2e-4 0.0044c-0.1395-1e-4 -0.2805 0.0085-0.4227 0.0345-3.0922 0.5763-8.3059 2.0669-8.4833 5.5726-0.1429 2.8192 2.6192 4.8229 9.4887 6.8782l0.0632 1.355h0.0029v22.126c0 1.7323 1.4043 3.1366 3.1365 3.1366s3.1366-1.4043 3.1366-3.1366v-22.126h1.4783v22.126c0 1.7323 1.4043 3.1366 3.1366 3.1366s3.1365-1.4043 3.1365-3.1366v-22.126h0.0018l1.4173-7.0863c4.4399 3.6016 8.9935 5.6287 16.485 4.7637 1.2663-0.1465 2.1739-1.2912 2.0274-2.557zm-38.299-3.1063c0.9266-0.4504 2.4732-0.9478 3.9089-1.2368l0.1379 2.9564c-2.1793-0.729-3.3972-1.3223-4.0468-1.7196zm11.838-1.2438c0.6115 0 1.1076 0.4961 1.1076 1.1075 0 0.6115-0.4961 1.1076-1.1076 1.1076-0.6114 0-1.1076-0.4961-1.1076-1.1076 0-0.6114 0.4962-1.1075 1.1076-1.1075zm0 5.8147c-0.6114 0-1.1076-0.4961-1.1076-1.1076 0-0.6114 0.4962-1.1075 1.1076-1.1075 0.6115 0 1.1076 0.4961 1.1076 1.1075 0 0.6115-0.4961 1.1076-1.1076 1.1076z"/>
<circle class="color000 svgShape" cx="20.293" cy="6.192" r="5.192"/>
</svg>
</g>
</svg>
